<?xml version="1.0" encoding="utf-8" ?>
<svg baseProfile="full" height="156.0" version="1.1" width="208.0" xmlns="http://www.w3.org/2000/svg" xmlns:ev="http://www.w3.org/2001/xml-events" xmlns:xlink="http://www.w3.org/1999/xlink"><defs /><rect fill="white" height="156.0" width="208.0" x="0" y="0" /><path d="M74.0,49.5 m2.0,-5.5 l4.0,-3.5 15.5,-9.0 l22.5,-6.5 11.5,0.0 l12.5,3.5 6.5,3.5 l6.5,7.5 3.5,16.5 l0.5,11.0 3.5,1.5 l10.5,-0.5 5.5,8.0 l4.5,19.5 0.0,15.5 l-44.5,20.0 -12.5,-5.0 l-12.5,-11.0 -2.0,-8.5 l-23.5,12.0 " fill="none" stroke="red" stroke-width="2" /><path d="M74.0,49.5 m2.0,-5.5 l4.0,-3.5 15.5,-9.0 l22.5,-6.5 11.5,0.0 l12.5,3.5 6.5,3.5 l6.5,7.5 3.5,16.5 l0.5,11.0 3.5,1.5 l10.5,-0.5 5.5,8.0 l4.5,19.5 0.0,15.5 l-44.5,20.0 -12.5,-5.0 l-12.5,-11.0 -2.0,-8.5 l-23.5,12.0 -26.0,7.5 l-15.0,1.0 -6.5,-1.5 l-12.5,-5.5 -2.5,-3.5 l-0.5,-4.5 3.5,-13.0 l8.0,-9.0 8.5,-2.5 l-8.0,-26.0 0.0,-9.0 l2.5,-8.0 3.0,-3.5 l8.5,-6.5 16.0,-0.5 l10.0,2.5 7.5,8.5 l0.5,2.5 " fill="none" stroke="black" stroke-width="1" /></svg>