<?xml version="1.0" encoding="utf-8" ?>
<svg baseProfile="full" height="218.5" version="1.1" width="256.0" xmlns="http://www.w3.org/2000/svg" xmlns:ev="http://www.w3.org/2001/xml-events" xmlns:xlink="http://www.w3.org/1999/xlink"><defs /><rect fill="white" height="218.5" width="256.0" x="0" y="0" /><path d="M64.5,151.0 m-7.5,-2.0 l-16.0,-15.0 -7.5,-10.0 l-6.5,-14.5 -2.0,-16.5 l8.5,-14.0 20.0,-9.5 l24.0,-1.0 24.0,-24.0 l18.0,-14.0 9.5,-5.0 l12.0,-0.5 8.0,3.0 l14.0,9.5 20.5,23.5 l13.0,11.0 6.0,8.5 l3.0,9.0 -1.0,17.0 l5.0,6.0 " fill="none" stroke="red" stroke-width="2" /><path d="M64.5,151.0 m-7.5,-2.0 l-16.0,-15.0 -7.5,-10.0 l-6.5,-14.5 -2.0,-16.5 l8.5,-14.0 20.0,-9.5 l24.0,-1.0 24.0,-24.0 l18.0,-14.0 9.5,-5.0 l12.0,-0.5 8.0,3.0 l14.0,9.5 20.5,23.5 l13.0,11.0 6.0,8.5 l3.0,9.0 -1.0,17.0 l5.0,6.0 0.0,8.0 l-25.5,14.5 -52.5,16.5 l-66.0,2.5 -5.5,-3.5 l-2.0,-2.5 0.5,-2.0 m9.0,10.0 l12.5,9.5 24.5,9.5 l18.0,4.5 7.5,0.0 l6.0,-11.5 19.0,14.5 l18.5,10.0 6.5,1.0 l5.0,-2.0 6.5,-4.5 l7.5,-8.5 4.0,-8.5 l2.5,-11.5 23.0,1.0 l2.5,-3.5 0.0,-9.5 l-2.5,-5.0 -7.5,-6.5 l-9.0,-4.0 0.0,-2.5 l3.5,-2.0 2.5,-4.0 l-3.0,-28.5 -1.0,-2.5 l-2.0,0.0 " fill="none" stroke="black" stroke-width="1" /></svg>