<?xml version="1.0" encoding="utf-8" ?>
<svg baseProfile="full" height="186.0" version="1.1" width="169.5" xmlns="http://www.w3.org/2000/svg" xmlns:ev="http://www.w3.org/2001/xml-events" xmlns:xlink="http://www.w3.org/1999/xlink"><defs /><rect fill="white" height="186.0" width="169.5" x="0" y="0" /><path d="M144.5,27.0 m-10.0,-2.0 l-15.5,8.5 -3.5,7.5 l0.0,5.5 -10.0,-1.5 l-16.0,1.5 -16.0,8.5 l-15.0,10.5 -10.5,14.5 l-0.5,8.5 10.0,3.5 l-6.0,28.5 0.0,16.5 l4.5,2.5 12.5,0.5 l7.5,-6.5 2.5,8.0 l6.0,6.5 11.5,6.0 l11.0,3.5 " fill="none" stroke="red" stroke-width="2" /><path d="M144.5,27.0 m-10.0,-2.0 l-15.5,8.5 -3.5,7.5 l0.0,5.5 -10.0,-1.5 l-16.0,1.5 -16.0,8.5 l-15.0,10.5 -10.5,14.5 l-0.5,8.5 10.0,3.5 l-6.0,28.5 0.0,16.5 l4.5,2.5 12.5,0.5 l7.5,-6.5 2.5,8.0 l6.0,6.5 11.5,6.0 l11.0,3.5 5.5,2.5 l5.0,1.0 4.0,0.0 l3.5,-0.5 4.0,-0.5 l4.0,-1.0 3.5,-1.5 l3.5,-2.0 2.5,-2.5 l1.0,-2.5 0.0,-2.0 l-0.0,-3.0 -0.5,-2.5 l-1.5,-1.5 -2.0,-1.0 l-2.0,-1.0 -2.0,-1.5 l-2.5,-1.5 -3.0,-1.5 l-3.0,-1.5 -3.0,-1.0 l-3.0,-1.0 -3.0,-0.5 l-3.0,-0.5 -3.0,-0.5 l-3.0,-0.5 -3.0,-0.5 l-2.5,-0.5 -2.5,-0.0 l-2.0,-0.0 -2.0,-0.0 l-2.0,0.0 -1.5,-0.0 l-1.5,-0.0 -1.5,-0.0 l-1.5,-0.0 -1.0,-0.0 l-1.0,-0.0 -1.0,-0.0 l-1.0,-0.0 -1.0,-0.0 l-1.0,-0.0 -1.0,-0.0 l-1.0,-0.0 -1.0,-0.0 l-1.0,-0.0 -1.0,-0.0 l-1.0,-0.0 -1.0,-0.0 l-1.0,-0.0 -1.0,-0.0 l-1.0,-0.0 -1.0,-0.0 l-1.0,-0.0 -1.0,-0.0 l-1.0,-0.0 -1.0,-0.0 l-1.0,-0.0 -1.0,-0.0 l-1.0,-0.0 -1.0,-0.0 l-1.0,-0.0 -1.0,-0.0 l-1.0,-0.0 -1.0,-0.0 l-1.0,-0.0 -1.0,-0.0 l-1.0,-0.0 -1.0,-0.0 l-1.0,-0.0 -1.0,-0.0 l-1.0,-0.0 -1.0,-0.0 l-1.0,-0.0 -1.0,-0.0 l-1.0,-0.0 -1.0,-0.0 l-1.0,-0.0 -1.0,-0.0 l-1.0,-0.0 -1.0,-0.0 l-1.0,-0.0 -1.0,-0.0 l-1.0,-0.0 -1.0,-0.0 l-1.0,-0.0 -1.0,-0.0 l-1.0,-0.0 -1.0,-0.0 l-1.0,-0.0 -1.0,-0.0 l-1.0,-0.0 -1.0,-0.0 l-1.0,-0.0 -1.0,-0.0 l-1.0,-0.0 -1.0,-0.0 l-1.0,-0.0 -1.0,-0.0 l-1.0,-0.0 " fill="none" stroke="black" stroke-width="1" /></svg>