<?xml version="1.0" encoding="utf-8" ?>
<svg baseProfile="full" height="173.5" version="1.1" width="394.5" xmlns="http://www.w3.org/2000/svg" xmlns:ev="http://www.w3.org/2001/xml-events" xmlns:xlink="http://www.w3.org/1999/xlink"><defs /><rect fill="white" height="173.5" width="394.5" x="0" y="0" /><path d="M175.0,75.5 m0.5,-6.0 l5.0,-7.0 21.5,-23.0 l20.0,-11.0 14.0,-3.5 l9.5,0.0 3.5,2.0 l14.5,11.0 0.0,3.0 l3.0,2.0 43.0,0.0 l33.0,3.5 9.5,3.0 l3.0,3.0 0.0,14.0 l-9.5,6.5 -23.0,2.0 l-0.5,2.5 31.0,22.5 l9.0,14.0 " fill="none" stroke="red" stroke-width="2" /><path d="M175.0,75.5 m0.5,-6.0 l5.0,-7.0 21.5,-23.0 l20.0,-11.0 14.0,-3.5 l9.5,0.0 3.5,2.0 l14.5,11.0 0.0,3.0 l3.0,2.0 43.0,0.0 l33.0,3.5 9.5,3.0 l3.0,3.0 0.0,14.0 l-9.5,6.5 -23.0,2.0 l-0.5,2.5 31.0,22.5 l9.0,14.0 5.5,9.0 l2.0,6.5 -1.0,5.0 l-2.5,3.0 -3.5,2.0 l-4.0,1.5 -4.0,1.5 l-4.5,1.5 -4.0,1.5 l-4.5,1.5 -6.5,1.0 l-5.5,0.5 -3.5,-0.0 l-2.5,-1.0 -2.5,-2.0 l-2.5,-2.0 -2.0,-2.0 l-3.5,-2.0 -5.0,-3.0 l-4.0,-2.5 -3.5,-2.5 l-2.5,-2.0 -2.0,-2.0 l-1.5,-1.5 -1.0,-1.5 l-1.0,-1.5 -1.0,-1.5 l-1.0,-1.5 -1.0,-1.5 l-0.5,-1.0 -0.5,-1.0 l-0.5,-1.0 -0.5,-0.5 l-0.5,-0.5 -0.5,-0.0 l-0.5,-0.0 -0.5,0.0 l-0.5,0.0 -0.5,0.0 l-0.5,0.0 -0.5,0.0 l-0.5,0.0 -1.0,0.0 l-1.0,0.0 -1.0,0.0 l-1.0,0.0 -1.0,0.0 l-1.0,0.0 -1.0,0.0 l-1.0,-0.0 -1.0,-0.0 l-1.0,-0.0 -1.0,-0.0 l-1.0,-0.0 -1.0,-0.0 l-1.0,-0.0 -1.0,-0.0 l-1.0,-0.0 -1.0,-0.0 l-1.0,-0.0 -1.0,-0.0 l-1.0,-0.0 -1.0,-0.0 l-1.0,-0.0 -1.0,-0.0 l-1.0,-0.0 -1.0,-0.0 l-1.0,-0.0 -1.0,-0.0 l-1.0,-0.0 -1.0,-0.0 l-1.0,-0.0 -1.0,-0.0 l-1.0,-0.0 -1.0,-0.0 l-1.0,-0.0 -1.0,-0.0 l-1.0,-0.0 -1.0,-0.0 l-1.0,-0.0 -1.0,-0.0 l-1.0,-0.0 -1.0,-0.0 l-1.0,-0.0 -1.0,-0.0 l-1.0,-0.0 -1.0,-0.0 l-1.0,-0.0 -1.0,-0.0 l-1.0,-0.0 -1.0,-0.0 l-1.0,-0.0 -1.0,-0.0 l-1.0,-0.0 -1.0,-0.0 l-1.0,-0.0 -1.0,-0.0 l-1.0,-0.0 -1.0,-0.0 l-1.0,-0.0 -1.0,-0.0 l-1.0,-0.0 -1.0,-0.0 l-1.0,-0.0 -1.0,-0.0 l-1.0,-0.0 -1.0,-0.0 l-1.0,-0.0 -1.0,-0.0 l-1.0,-0.0 -1.0,-0.0 l-1.0,-0.0 -1.0,-0.0 l-1.0,-0.0 -1.0,-0.0 l-1.0,-0.0 -1.0,-0.0 l-1.0,-0.0 -1.0,-0.0 l-1.0,-0.0 -1.0,-0.0 l-1.0,-0.0 -1.0,-0.0 l-1.0,-0.0 -1.0,-0.0 l-1.0,-0.0 -1.0,-0.0 l-1.0,-0.0 -1.0,-0.0 l-1.0,-0.0 -1.0,-0.0 l-1.0,-0.0 -1.0,-0.0 l-1.0,-0.0 -1.0,-0.0 l-1.0,-0.0 -1.0,-0.0 l-1.0,-0.0 -1.0,-0.0 l-1.0,-0.0 -1.0,-0.0 l-1.0,-0.0 -1.0,-0.0 l-1.0,-0.0 -1.0,-0.0 l-1.0,-0.0 -1.0,-0.0 l-1.0,-0.0 -1.0,-0.0 l-1.0,-0.0 -1.0,-0.0 l-1.0,-0.0 -1.0,-0.0 l-1.0,-0.0 -1.0,-0.0 l-1.0,-0.0 -1.0,-0.0 l-1.0,-0.0 -1.0,-0.0 l-1.0,-0.0 -1.0,-0.0 l-1.0,-0.0 -1.0,-0.0 l-1.0,-0.0 -1.0,-0.0 l-1.0,-0.0 -1.0,-0.0 l-1.0,-0.0 -1.0,-0.0 l-1.0,-0.0 -1.0,-0.0 l-1.0,-0.0 -1.0,-0.0 l-1.0,-0.0 -1.0,-0.0 l-1.0,-0.0 -1.0,-0.0 l-1.0,-0.0 -1.0,-0.0 l-1.0,-0.0 -1.0,-0.0 l-1.0,-0.0 -1.0,-0.0 l-1.0,-0.0 -1.0,-0.0 l-1.0,-0.0 -1.0,-0.0 l-1.0,-0.0 -1.0,-0.0 l-1.0,-0.0 -1.0,-0.0 l-1.0,-0.0 -1.0,-0.0 l-1.0,-0.0 -1.0,-0.0 l-1.0,-0.0 -1.0,-0.0 l-1.0,-0.0 -1.0,-0.0 l-1.0,-0.0 -1.0,-0.0 l-1.0,-0.0 -1.0,-0.0 l-1.0,-0.0 -1.0,-0.0 l-1.0,-0.0 -1.0,-0.0 l-1.0,-0.0 -1.0,-0.0 l-1.0,-0.0 -1.0,-0.0 l-1.0,-0.0 -1.0,-0.0 l-1.0,-0.0 -1.0,-0.0 l-1.0,-0.0 -1.0,-0.0 l-1.0,-0.0 -1.0,-0.0 l-1.0,-0.0 -1.0,-0.0 l-1.0,-0.0 -1.0,-0.0 l-1.0,-0.0 -1.0,-0.0 l-1.0,-0.0 -1.0,-0.0 l-1.0,-0.0 -1.0,-0.0 l-1.0,-0.0 -1.0,-0.0 l-1.0,-0.0 -1.0,-0.0 l-1.0,-0.0 -1.0,-0.0 l-1.0,-0.0 -1.0,-0.0 l-1.0,-0.0 -1.0,-0.0 l-1.0,-0.0 -1.0,-0.0 l-1.0,-0.0 -1.0,-0.0 l-1.0,-0.0 -1.0,-0.0 l-1.0,-0.0 -1.0,-0.0 l-1.0,-0.0 -1.0,-0.0 l-1.0,-0.0 -1.0,-0.0 l-1.0,-0.0 -1.0,-0.0 l-1.0,-0.0 -1.0,-0.0 l-1.0,-0.0 -1.0,-0.0 l-1.0,-0.0 -1.0,-0.0 l-1.0,-0.0 -1.0,-0.0 l-1.0,-0.0 -1.0,-0.0 l-1.0,-0.0 -1.0,-0.0 l-1.0,-0.0 -1.0,-0.0 l-1.0,-0.0 -1.0,-0.0 l-1.0,-0.0 -1.0,-0.0 l-1.0,-0.0 -1.0,-0.0 l-1.0,-0.0 -1.0,-0.0 l-1.0,-0.0 -1.0,-0.0 l-1.0,-0.0 -1.0,-0.0 l-1.0,-0.0 -1.0,-0.0 l-1.0,-0.0 -1.0,-0.0 l-1.0,-0.0 -1.0,-0.0 l-1.0,-0.0 -1.0,-0.0 l-1.0,-0.0 -1.0,-0.0 l-1.0,-0.0 -1.0,-0.0 l-1.0,-0.0 -1.0,-0.0 l-1.0,-0.0 -1.0,-0.0 l-1.0,-0.0 -1.0,-0.0 l-1.0,-0.0 -1.0,-0.0 l-1.0,-0.0 " fill="none" stroke="black" stroke-width="1" /></svg>