<?xml version="1.0" encoding="utf-8" ?>
<svg baseProfile="full" height="264.0" version="1.1" width="319.0" xmlns="http://www.w3.org/2000/svg" xmlns:ev="http://www.w3.org/2001/xml-events" xmlns:xlink="http://www.w3.org/1999/xlink"><defs /><rect fill="white" height="264.0" width="319.0" x="0" y="0" /><path d="M294.0,48.5 m-5.0,-5.0 l-26.0,-14.5 -16.5,-3.5 l-23.5,-0.5 -14.0,2.0 l-12.0,5.0 -20.5,15.0 l-10.5,12.0 -3.5,7.5 l-5.5,20.5 0.0,14.5 l7.5,16.0 18.0,9.0 l-6.5,6.5 -4.5,17.0 l-1.5,22.0 2.0,13.0 l2.5,10.0 10.5,14.0 l16.0,10.0 " fill="none" stroke="red" stroke-width="2" /><path d="M294.0,48.5 m-5.0,-5.0 l-26.0,-14.5 -16.5,-3.5 l-23.5,-0.5 -14.0,2.0 l-12.0,5.0 -20.5,15.0 l-10.5,12.0 -3.5,7.5 l-5.5,20.5 0.0,14.5 l7.5,16.0 18.0,9.0 l-6.5,6.5 -4.5,17.0 l-1.5,22.0 2.0,13.0 l2.5,10.0 10.5,14.0 l16.0,10.0 8.0,6.5 l7.0,5.0 5.5,3.5 l5.0,2.5 4.0,1.5 l3.5,1.0 3.0,-0.0 l2.0,-0.5 1.5,-1.0 l1.0,-2.0 0.5,-2.0 l-0.5,-2.5 -1.0,-2.5 l-0.0,-2.5 -0.5,-3.5 l-1.5,-4.0 -2.0,-3.5 l-2.5,-3.0 -3.0,-3.0 l-3.5,-2.5 -3.0,-2.0 l-3.0,-2.0 -3.0,-1.5 l-3.0,-1.5 -2.5,-1.5 l-2.5,-1.0 -2.5,-1.0 l-2.5,-1.0 -2.5,-0.5 l-2.5,-0.5 -2.0,-0.5 l-2.0,-0.0 -2.0,0.0 l-2.0,0.0 -1.5,0.0 l-1.5,0.0 -1.5,0.0 l-1.0,0.0 -1.0,0.0 l-1.0,0.0 -1.0,0.0 l-1.0,0.0 -1.0,0.0 l-1.0,-0.0 -1.0,-0.0 l-1.0,-0.0 -1.0,-0.0 l-1.0,-0.0 -1.0,-0.0 l-1.0,-0.0 -1.0,-0.0 l-1.0,-0.0 -1.0,-0.0 l-1.0,-0.0 -1.0,-0.0 l-1.0,-0.0 -1.0,-0.0 l-1.0,-0.0 -1.0,-0.0 l-1.0,-0.0 -1.0,-0.0 l-1.0,-0.0 -1.0,-0.0 l-1.0,-0.0 -1.0,-0.0 l-1.0,-0.0 -1.0,-0.0 l-1.0,-0.0 -1.0,-0.0 l-1.0,-0.0 -1.0,-0.0 l-1.0,-0.0 -1.0,-0.0 l-1.0,-0.0 -1.0,-0.0 l-1.0,-0.0 -1.0,-0.0 l-1.0,-0.0 -1.0,-0.0 l-1.0,-0.0 -1.0,-0.0 l-1.0,-0.0 -1.0,-0.0 l-1.0,-0.0 -1.0,-0.0 l-1.0,-0.0 -1.0,-0.0 l-1.0,-0.0 -1.0,-0.0 l-1.0,-0.0 -1.0,-0.0 l-1.0,-0.0 -1.0,-0.0 l-1.0,-0.0 -1.0,-0.0 l-1.0,-0.0 -1.0,-0.0 l-1.0,-0.0 -1.0,-0.0 l-1.0,-0.0 -1.0,-0.0 l-1.0,-0.0 -1.0,-0.0 l-1.0,-0.0 -1.0,-0.0 l-1.0,-0.0 -1.0,-0.0 l-1.0,-0.0 -1.0,-0.0 l-1.0,-0.0 -1.0,-0.0 l-1.0,-0.0 -1.0,-0.0 l-1.0,-0.0 -1.0,-0.0 l-1.0,-0.0 -1.0,-0.0 l-1.0,-0.0 -1.0,-0.0 l-1.0,-0.0 -1.0,-0.0 l-1.0,-0.0 -1.0,-0.0 l-1.0,-0.0 -1.0,-0.0 l-1.0,-0.0 -1.0,-0.0 l-1.0,-0.0 -1.0,-0.0 l-1.0,-0.0 -1.0,-0.0 l-1.0,-0.0 -1.0,-0.0 l-1.0,-0.0 -1.0,-0.0 l-1.0,-0.0 -1.0,-0.0 l-1.0,-0.0 -1.0,-0.0 l-1.0,-0.0 -1.0,-0.0 l-1.0,-0.0 -1.0,-0.0 l-1.0,-0.0 -1.0,-0.0 l-1.0,-0.0 -1.0,-0.0 l-1.0,-0.0 -1.0,-0.0 l-1.0,-0.0 -1.0,-0.0 l-1.0,-0.0 -1.0,-0.0 l-1.0,-0.0 -1.0,-0.0 l-1.0,-0.0 -1.0,-0.0 l-1.0,-0.0 -1.0,-0.0 l-1.0,-0.0 -1.0,-0.0 l-1.0,-0.0 -1.0,-0.0 l-1.0,-0.0 -1.0,-0.0 l-1.0,-0.0 -1.0,-0.0 l-1.0,-0.0 -1.0,-0.0 l-1.0,-0.0 -1.0,-0.0 l-1.0,-0.0 -1.0,-0.0 l-1.0,-0.0 -1.0,-0.0 l-1.0,-0.0 -1.0,-0.0 l-1.0,-0.0 -1.0,-0.0 l-1.0,-0.0 -1.0,-0.0 l-1.0,-0.0 -1.0,-0.0 l-1.0,-0.0 -1.0,-0.0 l-1.0,-0.0 -1.0,-0.0 l-1.0,-0.0 -1.0,-0.0 l-1.0,-0.0 -1.0,-0.0 l-1.0,-0.0 -1.0,-0.0 l-1.0,-0.0 -1.0,-0.0 l-1.0,-0.0 -1.0,-0.0 l-1.0,-0.0 -1.0,-0.0 l-1.0,-0.0 " fill="none" stroke="black" stroke-width="1" /></svg>