<?xml version="1.0" encoding="utf-8" ?>
<svg baseProfile="full" height="218.5" version="1.1" width="353.5" xmlns="http://www.w3.org/2000/svg" xmlns:ev="http://www.w3.org/2001/xml-events" xmlns:xlink="http://www.w3.org/1999/xlink"><defs /><rect fill="white" height="218.5" width="353.5" x="0" y="0" /><path d="M59.0,79.5 m0.0,-10.5 l5.0,-12.5 17.5,-15.0 l18.0,-10.0 15.5,0.0 l13.5,5.5 9.0,10.0 l2.0,5.0 14.0,-16.0 l7.5,-5.0 11.5,-6.0 l10.0,0.0 12.0,4.0 l5.0,3.5 11.5,20.0 l5.5,-2.5 14.5,-11.5 l16.0,-8.5 14.0,-5.0 l15.0,0.0 " fill="none" stroke="red" stroke-width="2" /><path d="M59.0,79.5 m0.0,-10.5 l5.0,-12.5 17.5,-15.0 l18.0,-10.0 15.5,0.0 l13.5,5.5 9.0,10.0 l2.0,5.0 14.0,-16.0 l7.5,-5.0 11.5,-6.0 l10.0,0.0 12.0,4.0 l5.0,3.5 11.5,20.0 l5.5,-2.5 14.5,-11.5 l16.0,-8.5 14.0,-5.0 l15.0,0.0 14.5,4.0 l16.5,9.5 5.5,8.0 l3.0,11.0 -1.0,9.5 l-3.0,5.5 -10.0,10.0 l9.5,1.0 11.0,7.5 l6.0,11.5 0.5,9.5 l-3.5,16.0 -9.5,17.0 l-4.0,5.5 -23.0,15.5 l-11.0,4.0 -15.5,2.0 l-20.0,-2.5 -4.5,-2.0 l-12.0,-9.0 -9.5,-16.5 l-2.0,0.0 -21.0,23.0 l-19.5,16.0 -17.5,8.5 l-17.0,4.0 -11.0,0.0 l-19.5,-5.5 -16.0,-10.5 l-12.0,-14.0 -4.5,-10.0 l-2.0,-9.5 -6.0,10.5 l-4.5,4.0 -9.5,3.0 l-13.5,-2.0 -6.0,-3.5 l-7.5,-9.5 -2.0,-9.0 l1.0,-10.0 8.5,-17.5 l7.0,-10.0 15.5,-16.0 l14.5,-11.5 " fill="none" stroke="black" stroke-width="1" /></svg>