<?xml version="1.0" encoding="utf-8" ?>
<svg baseProfile="full" height="165.0" version="1.1" width="177.0" xmlns="http://www.w3.org/2000/svg" xmlns:ev="http://www.w3.org/2001/xml-events" xmlns:xlink="http://www.w3.org/1999/xlink"><defs /><rect fill="white" height="165.0" width="177.0" x="0" y="0" /><path d="M43.5,74.5 m-5.0,-0.5 l-7.0,8.5 -5.5,13.5 l-1.0,9.5 2.0,2.5 l14.5,0.5 10.0,-4.5 l-6.0,4.5 -4.5,7.5 l-2.0,16.0 4.5,5.0 l8.0,3.0 19.0,0.0 l9.0,-4.5 7.5,-6.0 l3.5,-5.0 2.0,-6.5 l-4.0,2.5 -2.0,11.0 l3.0,2.5 " fill="none" stroke="red" stroke-width="2" /><path d="M43.5,74.5 m-5.0,-0.5 l-7.0,8.5 -5.5,13.5 l-1.0,9.5 2.0,2.5 l14.5,0.5 10.0,-4.5 l-6.0,4.5 -4.5,7.5 l-2.0,16.0 4.5,5.0 l8.0,3.0 19.0,0.0 l9.0,-4.5 7.5,-6.0 l3.5,-5.0 2.0,-6.5 l-4.0,2.5 -2.0,11.0 l3.0,2.5 6.5,0.0 l7.5,-2.5 12.5,-13.5 l7.0,-17.0 6.5,2.0 l6.5,-3.0 6.0,-6.5 l10.0,-17.5 0.0,-6.5 l-10.0,-1.0 -4.0,3.5 l3.0,-3.5 1.5,-21.0 l-5.5,-7.0 -11.0,-1.0 l-5.5,4.0 -1.0,-9.5 l-5.0,-6.0 -11.5,-3.0 l-13.5,0.5 -5.5,3.0 l-7.0,8.5 -2.0,9.5 l3.0,1.5 1.0,-3.5 l-1.5,-3.5 -12.0,-1.5 l-5.0,2.0 -9.5,9.0 l-7.5,13.0 -1.5,6.5 l-0.5,9.0 3.0,3.0 m35.5,7.0 l-4.0,-5.0 0.0,-8.0 l1.0,-4.0 2.5,-2.5 l7.5,-2.5 3.0,3.0 l0.5,5.5 5.0,-6.0 l7.0,-5.0 9.0,-0.5 l1.0,4.0 " fill="none" stroke="black" stroke-width="1" /></svg>