<?xml version="1.0" encoding="utf-8" ?>
<svg baseProfile="full" height="135.5" version="1.1" width="178.0" xmlns="http://www.w3.org/2000/svg" xmlns:ev="http://www.w3.org/2001/xml-events" xmlns:xlink="http://www.w3.org/1999/xlink"><defs /><rect fill="white" height="135.5" width="178.0" x="0" y="0" /><path d="M33.0,95.0 m30.0,13.5 l12.5,2.0 16.5,0.0 l26.5,-3.0 19.0,-5.0 l8.0,-4.5 5.5,-6.5 l2.0,-9.0 -1.0,-10.0 l-4.5,-8.0 1.5,-18.0 l-1.5,-4.0 -8.5,-3.5 l-6.0,0.5 -12.0,8.5 l2.5,-18.5 -0.5,-2.5 l-4.0,-2.0 -4.0,0.0 l-6.0,3.0 " fill="none" stroke="red" stroke-width="2" /><path d="M33.0,95.0 m30.0,13.5 l12.5,2.0 16.5,0.0 l26.5,-3.0 19.0,-5.0 l8.0,-4.5 5.5,-6.5 l2.0,-9.0 -1.0,-10.0 l-4.5,-8.0 1.5,-18.0 l-1.5,-4.0 -8.5,-3.5 l-6.0,0.5 -12.0,8.5 l2.5,-18.5 -0.5,-2.5 l-4.0,-2.0 -4.0,0.0 l-6.0,3.0 -8.5,10.0 l-3.5,7.0 -1.5,-9.0 l-3.0,-3.0 -4.5,-1.0 l-6.0,0.0 -6.0,3.0 l-10.5,12.5 2.0,-13.0 l-3.5,-2.0 -13.5,1.0 l-11.0,9.5 -6.0,8.5 l-0.5,5.5 2.5,1.5 l-3.0,-1.0 -6.5,10.5 l-1.0,13.5 0.5,3.0 l4.0,1.0 6.5,9.0 l6.5,2.0 " fill="none" stroke="black" stroke-width="1" /></svg>